<?xml version="1.0" encoding="utf-8"?>
<!-- Generator: Adobe Illustrator 27.5.0, SVG Export Plug-In . SVG Version: 6.00 Build 0)  -->
<svg version="1.1" id="Layer_1" xmlns="http://www.w3.org/2000/svg" xmlns:xlink="http://www.w3.org/1999/xlink" x="0px" y="0px"
	 viewBox="0 0 566.93 566.93" style="enable-background:new 0 0 566.93 566.93;" xml:space="preserve">
<rect style="fill:#FFFFFF;" width="47.245" height="47.245"/>
<rect x="9.449" y="9.448" width="28.347" height="28.347"/>
<rect x="18.898" y="18.897" style="fill:#FFFFFF;" width="9.449" height="9.449"/>
<rect x="47.245" width="47.244" height="47.245"/>
<rect x="56.693" y="9.448" style="fill:#FFFFFF;" width="28.347" height="28.347"/>
<rect x="66.143" y="18.897" width="9.448" height="9.449"/>
<rect x="47.245" y="47.244" style="fill:#FFFFFF;" width="47.244" height="47.245"/>
<rect x="56.693" y="56.693" width="28.347" height="28.347"/>
<rect x="66.143" y="66.143" style="fill:#FFFFFF;" width="9.448" height="9.448"/>
<rect y="47.244" width="47.245" height="47.245"/>
<rect x="9.449" y="56.693" style="fill:#FFFFFF;" width="28.347" height="28.347"/>
<rect x="18.898" y="66.143" width="9.449" height="9.448"/>
<rect x="94.488" style="fill:#FFFFFF;" width="47.245" height="47.245"/>
<rect x="103.938" y="9.448" width="28.346" height="28.347"/>
<rect x="113.387" y="18.897" style="fill:#FFFFFF;" width="9.448" height="9.449"/>
<rect x="141.733" width="47.245" height="47.245"/>
<rect x="151.182" y="9.448" style="fill:#FFFFFF;" width="28.346" height="28.347"/>
<rect x="160.631" y="18.897" width="9.448" height="9.449"/>
<rect x="141.733" y="47.244" style="fill:#FFFFFF;" width="47.245" height="47.245"/>
<rect x="151.182" y="56.693" width="28.346" height="28.347"/>
<rect x="160.631" y="66.143" style="fill:#FFFFFF;" width="9.448" height="9.448"/>
<rect x="94.488" y="47.244" width="47.245" height="47.245"/>
<rect x="103.938" y="56.693" style="fill:#FFFFFF;" width="28.346" height="28.347"/>
<rect x="113.387" y="66.143" width="9.448" height="9.448"/>
<rect y="94.488" style="fill:#FFFFFF;" width="47.245" height="47.245"/>
<rect x="9.449" y="103.937" width="28.347" height="28.346"/>
<rect x="18.898" y="113.386" style="fill:#FFFFFF;" width="9.449" height="9.448"/>
<rect x="47.245" y="94.488" width="47.244" height="47.245"/>
<rect x="56.693" y="103.937" style="fill:#FFFFFF;" width="28.347" height="28.346"/>
<rect x="66.143" y="113.386" width="9.448" height="9.448"/>
<rect x="47.245" y="141.732" style="fill:#FFFFFF;" width="47.244" height="47.244"/>
<rect x="56.693" y="151.182" width="28.347" height="28.346"/>
<rect x="66.143" y="160.631" style="fill:#FFFFFF;" width="9.448" height="9.448"/>
<rect y="141.732" width="47.245" height="47.244"/>
<rect x="9.449" y="151.182" style="fill:#FFFFFF;" width="28.347" height="28.346"/>
<rect x="18.898" y="160.631" width="9.449" height="9.448"/>
<rect x="94.488" y="94.488" style="fill:#FFFFFF;" width="47.245" height="47.245"/>
<rect x="103.938" y="103.937" width="28.346" height="28.346"/>
<rect x="113.387" y="113.386" style="fill:#FFFFFF;" width="9.448" height="9.448"/>
<rect x="141.733" y="94.488" width="47.245" height="47.245"/>
<rect x="151.182" y="103.937" style="fill:#FFFFFF;" width="28.346" height="28.346"/>
<rect x="160.631" y="113.386" width="9.448" height="9.448"/>
<rect x="141.733" y="141.732" style="fill:#FFFFFF;" width="47.245" height="47.244"/>
<rect x="151.182" y="151.182" width="28.346" height="28.346"/>
<rect x="160.631" y="160.631" style="fill:#FFFFFF;" width="9.448" height="9.448"/>
<rect x="94.488" y="141.732" width="47.245" height="47.244"/>
<rect x="103.938" y="151.182" style="fill:#FFFFFF;" width="28.346" height="28.346"/>
<rect x="113.387" y="160.631" width="9.448" height="9.448"/>
<rect x="188.977" style="fill:#FFFFFF;" width="47.245" height="47.245"/>
<rect x="198.426" y="9.448" width="28.347" height="28.347"/>
<rect x="207.874" y="18.897" style="fill:#FFFFFF;" width="9.448" height="9.449"/>
<rect x="236.221" width="47.245" height="47.245"/>
<rect x="245.67" y="9.448" style="fill:#FFFFFF;" width="28.347" height="28.347"/>
<rect x="255.119" y="18.897" width="9.449" height="9.449"/>
<rect x="236.221" y="47.244" style="fill:#FFFFFF;" width="47.245" height="47.245"/>
<rect x="245.67" y="56.693" width="28.347" height="28.347"/>
<rect x="255.119" y="66.143" style="fill:#FFFFFF;" width="9.449" height="9.448"/>
<rect x="188.977" y="47.244" width="47.245" height="47.245"/>
<rect x="198.426" y="56.693" style="fill:#FFFFFF;" width="28.347" height="28.347"/>
<rect x="207.874" y="66.143" width="9.448" height="9.448"/>
<rect x="283.465" style="fill:#FFFFFF;" width="47.245" height="47.245"/>
<rect x="292.914" y="9.448" width="28.347" height="28.347"/>
<rect x="302.363" y="18.897" style="fill:#FFFFFF;" width="9.447" height="9.449"/>
<rect x="330.71" width="47.244" height="47.245"/>
<rect x="340.158" y="9.448" style="fill:#FFFFFF;" width="28.347" height="28.347"/>
<rect x="349.607" y="18.897" width="9.448" height="9.449"/>
<rect x="330.71" y="47.244" style="fill:#FFFFFF;" width="47.244" height="47.245"/>
<rect x="340.158" y="56.693" width="28.347" height="28.347"/>
<rect x="349.607" y="66.143" style="fill:#FFFFFF;" width="9.448" height="9.448"/>
<rect x="283.465" y="47.244" width="47.245" height="47.245"/>
<rect x="292.914" y="56.693" style="fill:#FFFFFF;" width="28.347" height="28.347"/>
<rect x="302.363" y="66.143" width="9.447" height="9.448"/>
<rect x="188.977" y="94.488" style="fill:#FFFFFF;" width="47.245" height="47.245"/>
<rect x="198.426" y="103.937" width="28.347" height="28.346"/>
<rect x="207.874" y="113.386" style="fill:#FFFFFF;" width="9.448" height="9.448"/>
<rect x="236.221" y="94.488" width="47.245" height="47.245"/>
<rect x="245.67" y="103.937" style="fill:#FFFFFF;" width="28.347" height="28.346"/>
<rect x="255.119" y="113.386" width="9.449" height="9.448"/>
<rect x="236.221" y="141.732" style="fill:#FFFFFF;" width="47.245" height="47.244"/>
<rect x="245.67" y="151.182" width="28.347" height="28.346"/>
<rect x="255.119" y="160.631" style="fill:#FFFFFF;" width="9.449" height="9.448"/>
<rect x="188.977" y="141.732" width="47.245" height="47.244"/>
<rect x="198.426" y="151.182" style="fill:#FFFFFF;" width="28.347" height="28.346"/>
<rect x="207.874" y="160.631" width="9.448" height="9.448"/>
<rect x="283.465" y="94.488" style="fill:#FFFFFF;" width="47.245" height="47.245"/>
<rect x="292.914" y="103.937" width="28.347" height="28.346"/>
<rect x="302.363" y="113.386" style="fill:#FFFFFF;" width="9.447" height="9.448"/>
<rect x="330.71" y="94.488" width="47.244" height="47.245"/>
<rect x="340.158" y="103.937" style="fill:#FFFFFF;" width="28.347" height="28.346"/>
<rect x="349.607" y="113.386" width="9.448" height="9.448"/>
<rect x="330.71" y="141.732" style="fill:#FFFFFF;" width="47.244" height="47.244"/>
<rect x="340.158" y="151.182" width="28.347" height="28.346"/>
<rect x="349.607" y="160.631" style="fill:#FFFFFF;" width="9.448" height="9.448"/>
<rect x="283.465" y="141.732" width="47.245" height="47.244"/>
<rect x="292.914" y="151.182" style="fill:#FFFFFF;" width="28.347" height="28.346"/>
<rect x="302.363" y="160.631" width="9.447" height="9.448"/>
<rect x="377.953" style="fill:#FFFFFF;" width="47.245" height="47.245"/>
<rect x="387.402" y="9.448" width="28.346" height="28.347"/>
<rect x="396.852" y="18.897" style="fill:#FFFFFF;" width="9.448" height="9.449"/>
<rect x="425.198" width="47.242" height="47.245"/>
<rect x="434.646" y="9.448" style="fill:#FFFFFF;" width="28.348" height="28.347"/>
<rect x="444.094" y="18.897" width="9.451" height="9.449"/>
<rect x="425.198" y="47.244" style="fill:#FFFFFF;" width="47.242" height="47.245"/>
<rect x="434.646" y="56.693" width="28.348" height="28.347"/>
<rect x="444.094" y="66.143" style="fill:#FFFFFF;" width="9.451" height="9.448"/>
<rect x="377.953" y="47.244" width="47.245" height="47.245"/>
<rect x="387.402" y="56.693" style="fill:#FFFFFF;" width="28.346" height="28.347"/>
<rect x="396.852" y="66.143" width="9.448" height="9.448"/>
<rect x="472.44" style="fill:#FFFFFF;" width="47.246" height="47.245"/>
<rect x="481.89" y="9.448" width="28.347" height="28.347"/>
<rect x="491.34" y="18.897" style="fill:#FFFFFF;" width="9.447" height="9.449"/>
<rect x="519.686" width="47.243" height="47.245"/>
<rect x="529.134" y="9.448" style="fill:#FFFFFF;" width="28.346" height="28.347"/>
<rect x="538.583" y="18.897" width="9.45" height="9.449"/>
<rect x="519.686" y="47.244" style="fill:#FFFFFF;" width="47.243" height="47.245"/>
<rect x="529.134" y="56.693" width="28.346" height="28.347"/>
<rect x="538.583" y="66.143" style="fill:#FFFFFF;" width="9.45" height="9.448"/>
<rect x="472.44" y="47.244" width="47.246" height="47.245"/>
<rect x="481.89" y="56.693" style="fill:#FFFFFF;" width="28.347" height="28.347"/>
<rect x="491.34" y="66.143" width="9.447" height="9.448"/>
<rect x="377.953" y="94.488" style="fill:#FFFFFF;" width="47.245" height="47.245"/>
<rect x="387.402" y="103.937" width="28.346" height="28.346"/>
<rect x="396.852" y="113.386" style="fill:#FFFFFF;" width="9.448" height="9.448"/>
<rect x="425.198" y="94.488" width="47.242" height="47.245"/>
<rect x="434.646" y="103.937" style="fill:#FFFFFF;" width="28.348" height="28.346"/>
<rect x="444.094" y="113.386" width="9.451" height="9.448"/>
<rect x="425.198" y="141.732" style="fill:#FFFFFF;" width="47.242" height="47.244"/>
<rect x="434.646" y="151.182" width="28.348" height="28.346"/>
<rect x="444.094" y="160.631" style="fill:#FFFFFF;" width="9.451" height="9.448"/>
<rect x="377.953" y="141.732" width="47.245" height="47.244"/>
<rect x="387.402" y="151.182" style="fill:#FFFFFF;" width="28.346" height="28.346"/>
<rect x="396.852" y="160.631" width="9.448" height="9.448"/>
<rect x="472.44" y="94.488" style="fill:#FFFFFF;" width="47.246" height="47.245"/>
<rect x="481.89" y="103.937" width="28.347" height="28.346"/>
<rect x="491.34" y="113.386" style="fill:#FFFFFF;" width="9.447" height="9.448"/>
<rect x="519.686" y="94.488" width="47.243" height="47.245"/>
<rect x="529.134" y="103.937" style="fill:#FFFFFF;" width="28.346" height="28.346"/>
<rect x="538.583" y="113.386" width="9.45" height="9.448"/>
<rect x="519.686" y="141.732" style="fill:#FFFFFF;" width="47.243" height="47.244"/>
<rect x="529.134" y="151.182" width="28.346" height="28.346"/>
<rect x="538.583" y="160.631" style="fill:#FFFFFF;" width="9.45" height="9.448"/>
<rect x="472.44" y="141.732" width="47.246" height="47.244"/>
<rect x="481.89" y="151.182" style="fill:#FFFFFF;" width="28.347" height="28.346"/>
<rect x="491.34" y="160.631" width="9.447" height="9.448"/>
<rect y="188.977" style="fill:#FFFFFF;" width="47.245" height="47.245"/>
<rect x="9.449" y="198.425" width="28.347" height="28.347"/>
<rect x="18.898" y="207.874" style="fill:#FFFFFF;" width="9.449" height="9.448"/>
<rect x="47.245" y="188.977" width="47.244" height="47.245"/>
<rect x="56.693" y="198.425" style="fill:#FFFFFF;" width="28.347" height="28.347"/>
<rect x="66.143" y="207.874" width="9.448" height="9.448"/>
<rect x="47.245" y="236.22" style="fill:#FFFFFF;" width="47.244" height="47.245"/>
<rect x="56.693" y="245.67" width="28.347" height="28.347"/>
<rect x="66.143" y="255.119" style="fill:#FFFFFF;" width="9.448" height="9.449"/>
<rect y="236.22" width="47.245" height="47.245"/>
<rect x="9.449" y="245.67" style="fill:#FFFFFF;" width="28.347" height="28.347"/>
<rect x="18.898" y="255.119" width="9.449" height="9.449"/>
<rect x="94.488" y="188.977" style="fill:#FFFFFF;" width="47.245" height="47.245"/>
<rect x="103.938" y="198.425" width="28.346" height="28.347"/>
<rect x="113.387" y="207.874" style="fill:#FFFFFF;" width="9.448" height="9.448"/>
<rect x="141.733" y="188.977" width="47.245" height="47.245"/>
<rect x="151.182" y="198.425" style="fill:#FFFFFF;" width="28.346" height="28.347"/>
<rect x="160.631" y="207.874" width="9.448" height="9.448"/>
<rect x="141.733" y="236.22" style="fill:#FFFFFF;" width="47.245" height="47.245"/>
<rect x="151.182" y="245.67" width="28.346" height="28.347"/>
<rect x="160.631" y="255.119" style="fill:#FFFFFF;" width="9.448" height="9.449"/>
<rect x="94.488" y="236.22" width="47.245" height="47.245"/>
<rect x="103.938" y="245.67" style="fill:#FFFFFF;" width="28.346" height="28.347"/>
<rect x="113.387" y="255.119" width="9.448" height="9.449"/>
<rect y="283.465" style="fill:#FFFFFF;" width="47.245" height="47.245"/>
<rect x="9.449" y="292.913" width="28.347" height="28.347"/>
<rect x="18.898" y="302.362" style="fill:#FFFFFF;" width="9.449" height="9.448"/>
<rect x="47.245" y="283.465" width="47.244" height="47.245"/>
<rect x="56.693" y="292.913" style="fill:#FFFFFF;" width="28.347" height="28.347"/>
<rect x="66.143" y="302.362" width="9.448" height="9.448"/>
<rect x="47.245" y="330.709" style="fill:#FFFFFF;" width="47.244" height="47.244"/>
<rect x="56.693" y="340.158" width="28.347" height="28.347"/>
<rect x="66.143" y="349.607" style="fill:#FFFFFF;" width="9.448" height="9.448"/>
<rect y="330.709" width="47.245" height="47.244"/>
<rect x="9.449" y="340.158" style="fill:#FFFFFF;" width="28.347" height="28.347"/>
<rect x="18.898" y="349.607" width="9.449" height="9.448"/>
<rect x="94.488" y="283.465" style="fill:#FFFFFF;" width="47.245" height="47.245"/>
<rect x="103.938" y="292.913" width="28.346" height="28.347"/>
<rect x="113.387" y="302.362" style="fill:#FFFFFF;" width="9.448" height="9.448"/>
<rect x="141.733" y="283.465" width="47.245" height="47.245"/>
<rect x="151.182" y="292.913" style="fill:#FFFFFF;" width="28.346" height="28.347"/>
<rect x="160.631" y="302.362" width="9.448" height="9.448"/>
<rect x="141.733" y="330.709" style="fill:#FFFFFF;" width="47.245" height="47.244"/>
<rect x="151.182" y="340.158" width="28.346" height="28.347"/>
<rect x="160.631" y="349.607" style="fill:#FFFFFF;" width="9.448" height="9.448"/>
<rect x="94.488" y="330.709" width="47.245" height="47.244"/>
<rect x="103.938" y="340.158" style="fill:#FFFFFF;" width="28.346" height="28.347"/>
<rect x="113.387" y="349.607" width="9.448" height="9.448"/>
<rect x="188.977" y="188.977" style="fill:#FFFFFF;" width="47.245" height="47.245"/>
<rect x="198.426" y="198.425" width="28.347" height="28.347"/>
<rect x="207.874" y="207.874" style="fill:#FFFFFF;" width="9.448" height="9.448"/>
<rect x="236.221" y="188.977" width="47.245" height="47.245"/>
<rect x="245.67" y="198.425" style="fill:#FFFFFF;" width="28.347" height="28.347"/>
<rect x="255.119" y="207.874" width="9.449" height="9.448"/>
<rect x="236.221" y="236.22" style="fill:#FFFFFF;" width="47.245" height="47.245"/>
<rect x="245.67" y="245.67" width="28.347" height="28.347"/>
<rect x="255.119" y="255.119" style="fill:#FFFFFF;" width="9.449" height="9.449"/>
<rect x="188.977" y="236.22" width="47.245" height="47.245"/>
<rect x="198.426" y="245.67" style="fill:#FFFFFF;" width="28.347" height="28.347"/>
<rect x="207.874" y="255.119" width="9.448" height="9.449"/>
<rect x="283.465" y="188.977" style="fill:#FFFFFF;" width="47.245" height="47.245"/>
<rect x="292.914" y="198.425" width="28.347" height="28.347"/>
<rect x="302.363" y="207.874" style="fill:#FFFFFF;" width="9.447" height="9.448"/>
<rect x="330.71" y="188.977" width="47.244" height="47.245"/>
<rect x="340.158" y="198.425" style="fill:#FFFFFF;" width="28.347" height="28.347"/>
<rect x="349.607" y="207.874" width="9.448" height="9.448"/>
<rect x="330.71" y="236.22" style="fill:#FFFFFF;" width="47.244" height="47.245"/>
<rect x="340.158" y="245.67" width="28.347" height="28.347"/>
<rect x="349.607" y="255.119" style="fill:#FFFFFF;" width="9.448" height="9.449"/>
<rect x="283.465" y="236.22" width="47.245" height="47.245"/>
<rect x="292.914" y="245.67" style="fill:#FFFFFF;" width="28.347" height="28.347"/>
<rect x="302.363" y="255.119" width="9.447" height="9.449"/>
<rect x="188.977" y="283.465" style="fill:#FFFFFF;" width="47.245" height="47.245"/>
<rect x="198.426" y="292.913" width="28.347" height="28.347"/>
<rect x="207.874" y="302.362" style="fill:#FFFFFF;" width="9.448" height="9.448"/>
<rect x="236.221" y="283.465" width="47.245" height="47.245"/>
<rect x="245.67" y="292.913" style="fill:#FFFFFF;" width="28.347" height="28.347"/>
<rect x="255.119" y="302.362" width="9.449" height="9.448"/>
<rect x="236.221" y="330.709" style="fill:#FFFFFF;" width="47.245" height="47.244"/>
<rect x="245.67" y="340.158" width="28.347" height="28.347"/>
<rect x="255.119" y="349.607" style="fill:#FFFFFF;" width="9.449" height="9.448"/>
<rect x="188.977" y="330.709" width="47.245" height="47.244"/>
<rect x="198.426" y="340.158" style="fill:#FFFFFF;" width="28.347" height="28.347"/>
<rect x="207.874" y="349.607" width="9.448" height="9.448"/>
<rect x="283.465" y="283.465" style="fill:#FFFFFF;" width="47.245" height="47.245"/>
<rect x="292.914" y="292.913" width="28.347" height="28.347"/>
<rect x="302.363" y="302.362" style="fill:#FFFFFF;" width="9.447" height="9.448"/>
<rect x="330.71" y="283.465" width="47.244" height="47.245"/>
<rect x="340.158" y="292.913" style="fill:#FFFFFF;" width="28.347" height="28.347"/>
<rect x="349.607" y="302.362" width="9.448" height="9.448"/>
<rect x="330.71" y="330.709" style="fill:#FFFFFF;" width="47.244" height="47.244"/>
<rect x="340.158" y="340.158" width="28.347" height="28.347"/>
<rect x="349.607" y="349.607" style="fill:#FFFFFF;" width="9.448" height="9.448"/>
<rect x="283.465" y="330.709" width="47.245" height="47.244"/>
<rect x="292.914" y="340.158" style="fill:#FFFFFF;" width="28.347" height="28.347"/>
<rect x="302.363" y="349.607" width="9.447" height="9.448"/>
<rect x="377.953" y="188.977" style="fill:#FFFFFF;" width="47.245" height="47.245"/>
<rect x="387.402" y="198.425" width="28.346" height="28.347"/>
<rect x="396.852" y="207.874" style="fill:#FFFFFF;" width="9.448" height="9.448"/>
<rect x="425.198" y="188.977" width="47.242" height="47.245"/>
<rect x="434.646" y="198.425" style="fill:#FFFFFF;" width="28.348" height="28.347"/>
<rect x="444.094" y="207.874" width="9.451" height="9.448"/>
<rect x="425.198" y="236.22" style="fill:#FFFFFF;" width="47.242" height="47.245"/>
<rect x="434.646" y="245.67" width="28.348" height="28.347"/>
<rect x="444.094" y="255.119" style="fill:#FFFFFF;" width="9.451" height="9.449"/>
<rect x="377.953" y="236.22" width="47.245" height="47.245"/>
<rect x="387.402" y="245.67" style="fill:#FFFFFF;" width="28.346" height="28.347"/>
<rect x="396.852" y="255.119" width="9.448" height="9.449"/>
<rect x="472.44" y="188.977" style="fill:#FFFFFF;" width="47.246" height="47.245"/>
<rect x="481.89" y="198.425" width="28.347" height="28.347"/>
<rect x="491.34" y="207.874" style="fill:#FFFFFF;" width="9.447" height="9.448"/>
<rect x="519.686" y="188.977" width="47.243" height="47.245"/>
<rect x="529.134" y="198.425" style="fill:#FFFFFF;" width="28.346" height="28.347"/>
<rect x="538.583" y="207.874" width="9.45" height="9.448"/>
<rect x="519.686" y="236.22" style="fill:#FFFFFF;" width="47.243" height="47.245"/>
<rect x="529.134" y="245.67" width="28.346" height="28.347"/>
<rect x="538.583" y="255.119" style="fill:#FFFFFF;" width="9.45" height="9.449"/>
<rect x="472.44" y="236.22" width="47.246" height="47.245"/>
<rect x="481.89" y="245.67" style="fill:#FFFFFF;" width="28.347" height="28.347"/>
<rect x="491.34" y="255.119" width="9.447" height="9.449"/>
<rect x="377.953" y="283.465" style="fill:#FFFFFF;" width="47.245" height="47.245"/>
<rect x="387.402" y="292.913" width="28.346" height="28.347"/>
<rect x="396.852" y="302.362" style="fill:#FFFFFF;" width="9.448" height="9.448"/>
<rect x="425.198" y="283.465" width="47.242" height="47.245"/>
<rect x="434.646" y="292.913" style="fill:#FFFFFF;" width="28.348" height="28.347"/>
<rect x="444.094" y="302.362" width="9.451" height="9.448"/>
<rect x="425.198" y="330.709" style="fill:#FFFFFF;" width="47.242" height="47.244"/>
<rect x="434.646" y="340.158" width="28.348" height="28.347"/>
<rect x="444.094" y="349.607" style="fill:#FFFFFF;" width="9.451" height="9.448"/>
<rect x="377.953" y="330.709" width="47.245" height="47.244"/>
<rect x="387.402" y="340.158" style="fill:#FFFFFF;" width="28.346" height="28.347"/>
<rect x="396.852" y="349.607" width="9.448" height="9.448"/>
<rect x="472.44" y="283.465" style="fill:#FFFFFF;" width="47.246" height="47.245"/>
<rect x="481.89" y="292.913" width="28.347" height="28.347"/>
<rect x="491.34" y="302.362" style="fill:#FFFFFF;" width="9.447" height="9.448"/>
<rect x="519.686" y="283.465" width="47.243" height="47.245"/>
<rect x="529.134" y="292.913" style="fill:#FFFFFF;" width="28.346" height="28.347"/>
<rect x="538.583" y="302.362" width="9.45" height="9.448"/>
<rect x="519.686" y="330.709" style="fill:#FFFFFF;" width="47.243" height="47.244"/>
<rect x="529.134" y="340.158" width="28.346" height="28.347"/>
<rect x="538.583" y="349.607" style="fill:#FFFFFF;" width="9.45" height="9.448"/>
<rect x="472.44" y="330.709" width="47.246" height="47.244"/>
<rect x="481.89" y="340.158" style="fill:#FFFFFF;" width="28.347" height="28.347"/>
<rect x="491.34" y="349.607" width="9.447" height="9.448"/>
<rect y="377.953" style="fill:#FFFFFF;" width="47.245" height="47.245"/>
<rect x="9.449" y="387.401" width="28.347" height="28.347"/>
<rect x="18.898" y="396.851" style="fill:#FFFFFF;" width="9.449" height="9.448"/>
<rect x="47.245" y="377.953" width="47.244" height="47.245"/>
<rect x="56.693" y="387.401" style="fill:#FFFFFF;" width="28.347" height="28.347"/>
<rect x="66.143" y="396.851" width="9.448" height="9.448"/>
<rect x="47.245" y="425.197" style="fill:#FFFFFF;" width="47.244" height="47.243"/>
<rect x="56.693" y="434.647" width="28.347" height="28.348"/>
<rect x="66.143" y="444.094" style="fill:#FFFFFF;" width="9.448" height="9.451"/>
<rect y="425.197" width="47.245" height="47.243"/>
<rect x="9.449" y="434.647" style="fill:#FFFFFF;" width="28.347" height="28.348"/>
<rect x="18.898" y="444.094" width="9.449" height="9.451"/>
<rect x="94.488" y="377.953" style="fill:#FFFFFF;" width="47.245" height="47.245"/>
<rect x="103.938" y="387.401" width="28.346" height="28.347"/>
<rect x="113.387" y="396.851" style="fill:#FFFFFF;" width="9.448" height="9.448"/>
<rect x="141.733" y="377.953" width="47.245" height="47.245"/>
<rect x="151.182" y="387.401" style="fill:#FFFFFF;" width="28.346" height="28.347"/>
<rect x="160.631" y="396.851" width="9.448" height="9.448"/>
<rect x="141.733" y="425.197" style="fill:#FFFFFF;" width="47.245" height="47.243"/>
<rect x="151.182" y="434.647" width="28.346" height="28.348"/>
<rect x="160.631" y="444.094" style="fill:#FFFFFF;" width="9.448" height="9.451"/>
<rect x="94.488" y="425.197" width="47.245" height="47.243"/>
<rect x="103.938" y="434.647" style="fill:#FFFFFF;" width="28.346" height="28.348"/>
<rect x="113.387" y="444.094" width="9.448" height="9.451"/>
<rect y="472.44" style="fill:#FFFFFF;" width="47.245" height="47.246"/>
<rect x="9.449" y="481.89" width="28.347" height="28.347"/>
<rect x="18.898" y="491.34" style="fill:#FFFFFF;" width="9.449" height="9.447"/>
<rect x="47.245" y="472.44" width="47.244" height="47.246"/>
<rect x="56.693" y="481.89" style="fill:#FFFFFF;" width="28.347" height="28.347"/>
<rect x="66.143" y="491.34" width="9.448" height="9.447"/>
<rect x="47.245" y="519.687" style="fill:#FFFFFF;" width="47.244" height="47.243"/>
<rect x="56.693" y="529.134" width="28.347" height="28.346"/>
<rect x="66.143" y="538.583" style="fill:#FFFFFF;" width="9.448" height="9.45"/>
<rect y="519.687" width="47.245" height="47.243"/>
<rect x="9.449" y="529.134" style="fill:#FFFFFF;" width="28.347" height="28.346"/>
<rect x="18.898" y="538.583" width="9.449" height="9.45"/>
<rect x="94.488" y="472.44" style="fill:#FFFFFF;" width="47.245" height="47.246"/>
<rect x="103.938" y="481.89" width="28.346" height="28.347"/>
<rect x="113.387" y="491.34" style="fill:#FFFFFF;" width="9.448" height="9.447"/>
<rect x="141.733" y="472.44" width="47.245" height="47.246"/>
<rect x="151.182" y="481.89" style="fill:#FFFFFF;" width="28.346" height="28.347"/>
<rect x="160.631" y="491.34" width="9.448" height="9.447"/>
<rect x="141.733" y="519.687" style="fill:#FFFFFF;" width="47.245" height="47.243"/>
<rect x="151.182" y="529.134" width="28.346" height="28.346"/>
<rect x="160.631" y="538.583" style="fill:#FFFFFF;" width="9.448" height="9.45"/>
<rect x="94.488" y="519.687" width="47.245" height="47.243"/>
<rect x="103.938" y="529.134" style="fill:#FFFFFF;" width="28.346" height="28.346"/>
<rect x="113.387" y="538.583" width="9.448" height="9.45"/>
<rect x="188.977" y="377.953" style="fill:#FFFFFF;" width="47.245" height="47.245"/>
<rect x="198.426" y="387.401" width="28.347" height="28.347"/>
<rect x="207.874" y="396.851" style="fill:#FFFFFF;" width="9.448" height="9.448"/>
<rect x="236.221" y="377.953" width="47.245" height="47.245"/>
<rect x="245.67" y="387.401" style="fill:#FFFFFF;" width="28.347" height="28.347"/>
<rect x="255.119" y="396.851" width="9.449" height="9.448"/>
<rect x="236.221" y="425.197" style="fill:#FFFFFF;" width="47.245" height="47.243"/>
<rect x="245.67" y="434.647" width="28.347" height="28.348"/>
<rect x="255.119" y="444.094" style="fill:#FFFFFF;" width="9.449" height="9.451"/>
<rect x="188.977" y="425.197" width="47.245" height="47.243"/>
<rect x="198.426" y="434.647" style="fill:#FFFFFF;" width="28.347" height="28.348"/>
<rect x="207.874" y="444.094" width="9.448" height="9.451"/>
<rect x="283.465" y="377.953" style="fill:#FFFFFF;" width="47.245" height="47.245"/>
<rect x="292.914" y="387.401" width="28.347" height="28.347"/>
<rect x="302.363" y="396.851" style="fill:#FFFFFF;" width="9.447" height="9.448"/>
<rect x="330.71" y="377.953" width="47.244" height="47.245"/>
<rect x="340.158" y="387.401" style="fill:#FFFFFF;" width="28.347" height="28.347"/>
<rect x="349.607" y="396.851" width="9.448" height="9.448"/>
<rect x="330.71" y="425.197" style="fill:#FFFFFF;" width="47.244" height="47.243"/>
<rect x="340.158" y="434.647" width="28.347" height="28.348"/>
<rect x="349.607" y="444.094" style="fill:#FFFFFF;" width="9.448" height="9.451"/>
<rect x="283.465" y="425.197" width="47.245" height="47.243"/>
<rect x="292.914" y="434.647" style="fill:#FFFFFF;" width="28.347" height="28.348"/>
<rect x="302.363" y="444.094" width="9.447" height="9.451"/>
<rect x="188.977" y="472.44" style="fill:#FFFFFF;" width="47.245" height="47.246"/>
<rect x="198.426" y="481.89" width="28.347" height="28.347"/>
<rect x="207.874" y="491.34" style="fill:#FFFFFF;" width="9.448" height="9.447"/>
<rect x="236.221" y="472.44" width="47.245" height="47.246"/>
<rect x="245.67" y="481.89" style="fill:#FFFFFF;" width="28.347" height="28.347"/>
<rect x="255.119" y="491.34" width="9.449" height="9.447"/>
<rect x="236.221" y="519.687" style="fill:#FFFFFF;" width="47.245" height="47.243"/>
<rect x="245.67" y="529.134" width="28.347" height="28.346"/>
<rect x="255.119" y="538.583" style="fill:#FFFFFF;" width="9.449" height="9.45"/>
<rect x="188.977" y="519.687" width="47.245" height="47.243"/>
<rect x="198.426" y="529.134" style="fill:#FFFFFF;" width="28.347" height="28.346"/>
<rect x="207.874" y="538.583" width="9.448" height="9.45"/>
<rect x="283.465" y="472.44" style="fill:#FFFFFF;" width="47.245" height="47.246"/>
<rect x="292.914" y="481.89" width="28.347" height="28.347"/>
<rect x="302.363" y="491.34" style="fill:#FFFFFF;" width="9.447" height="9.447"/>
<rect x="330.71" y="472.44" width="47.244" height="47.246"/>
<rect x="340.158" y="481.89" style="fill:#FFFFFF;" width="28.347" height="28.347"/>
<rect x="349.607" y="491.34" width="9.448" height="9.447"/>
<rect x="330.71" y="519.687" style="fill:#FFFFFF;" width="47.244" height="47.243"/>
<rect x="340.158" y="529.134" width="28.347" height="28.346"/>
<rect x="349.607" y="538.583" style="fill:#FFFFFF;" width="9.448" height="9.45"/>
<rect x="283.465" y="519.687" width="47.245" height="47.243"/>
<rect x="292.914" y="529.134" style="fill:#FFFFFF;" width="28.347" height="28.346"/>
<rect x="302.363" y="538.583" width="9.447" height="9.45"/>
<rect x="377.953" y="377.953" style="fill:#FFFFFF;" width="47.245" height="47.245"/>
<rect x="387.402" y="387.401" width="28.346" height="28.347"/>
<rect x="396.852" y="396.851" style="fill:#FFFFFF;" width="9.448" height="9.448"/>
<rect x="425.198" y="377.953" width="47.242" height="47.245"/>
<rect x="434.646" y="387.401" style="fill:#FFFFFF;" width="28.348" height="28.347"/>
<rect x="444.094" y="396.851" width="9.451" height="9.448"/>
<rect x="425.198" y="425.197" style="fill:#FFFFFF;" width="47.242" height="47.243"/>
<rect x="434.646" y="434.647" width="28.348" height="28.348"/>
<rect x="444.094" y="444.094" style="fill:#FFFFFF;" width="9.451" height="9.451"/>
<rect x="377.953" y="425.197" width="47.245" height="47.243"/>
<rect x="387.402" y="434.647" style="fill:#FFFFFF;" width="28.346" height="28.348"/>
<rect x="396.852" y="444.094" width="9.448" height="9.451"/>
<rect x="472.44" y="377.953" style="fill:#FFFFFF;" width="47.246" height="47.245"/>
<rect x="481.89" y="387.401" width="28.347" height="28.347"/>
<rect x="491.34" y="396.851" style="fill:#FFFFFF;" width="9.447" height="9.448"/>
<rect x="519.686" y="377.953" width="47.243" height="47.245"/>
<rect x="529.134" y="387.401" style="fill:#FFFFFF;" width="28.346" height="28.347"/>
<rect x="538.583" y="396.851" width="9.45" height="9.448"/>
<rect x="519.686" y="425.197" style="fill:#FFFFFF;" width="47.243" height="47.243"/>
<rect x="529.134" y="434.647" width="28.346" height="28.348"/>
<rect x="538.583" y="444.094" style="fill:#FFFFFF;" width="9.45" height="9.451"/>
<rect x="472.44" y="425.197" width="47.246" height="47.243"/>
<rect x="481.89" y="434.647" style="fill:#FFFFFF;" width="28.347" height="28.348"/>
<rect x="491.34" y="444.094" width="9.447" height="9.451"/>
<rect x="377.953" y="472.44" style="fill:#FFFFFF;" width="47.245" height="47.246"/>
<rect x="387.402" y="481.89" width="28.346" height="28.347"/>
<rect x="396.852" y="491.34" style="fill:#FFFFFF;" width="9.448" height="9.447"/>
<rect x="425.198" y="472.44" width="47.242" height="47.246"/>
<rect x="434.646" y="481.89" style="fill:#FFFFFF;" width="28.348" height="28.347"/>
<rect x="444.094" y="491.34" width="9.451" height="9.447"/>
<rect x="425.198" y="519.687" style="fill:#FFFFFF;" width="47.242" height="47.243"/>
<rect x="434.646" y="529.134" width="28.348" height="28.346"/>
<rect x="444.094" y="538.583" style="fill:#FFFFFF;" width="9.451" height="9.45"/>
<rect x="377.953" y="519.687" width="47.245" height="47.243"/>
<rect x="387.402" y="529.134" style="fill:#FFFFFF;" width="28.346" height="28.346"/>
<rect x="396.852" y="538.583" width="9.448" height="9.45"/>
<rect x="472.44" y="472.44" style="fill:#FFFFFF;" width="47.246" height="47.246"/>
<rect x="481.89" y="481.89" width="28.347" height="28.347"/>
<rect x="491.34" y="491.34" style="fill:#FFFFFF;" width="9.447" height="9.447"/>
<rect x="519.686" y="472.44" width="47.243" height="47.246"/>
<rect x="529.134" y="481.89" style="fill:#FFFFFF;" width="28.346" height="28.347"/>
<rect x="538.583" y="491.34" width="9.45" height="9.447"/>
<rect x="519.686" y="519.687" style="fill:#FFFFFF;" width="47.243" height="47.243"/>
<rect x="529.134" y="529.134" width="28.346" height="28.346"/>
<rect x="538.583" y="538.583" style="fill:#FFFFFF;" width="9.45" height="9.45"/>
<rect x="472.44" y="519.687" width="47.246" height="47.243"/>
<rect x="481.89" y="529.134" style="fill:#FFFFFF;" width="28.347" height="28.346"/>
<rect x="491.34" y="538.583" width="9.447" height="9.45"/>
</svg>
