<svg width="136" height="32" viewBox="0 0 136 32" fill="none" xmlns="http://www.w3.org/2000/svg">
<g filter="url(#filter0_i_522_36)">
<path d="M0.5 8V1H18.5L28.5 12H55.5L58.5 16.5V28L55.5 31H4L0.5 28V20H13.5V24H46.5V20H20.5L9.5 8H0.5Z" fill="#D9D9D9"/>
</g>
<path d="M0.5 8V1H18.5L28.5 12H55.5L58.5 16.5V28L55.5 31H4L0.5 28V20H13.5V24H46.5V20H20.5L9.5 8H0.5Z" stroke="#6D8F79"/>
<rect x="26.5" width="33" height="8" rx="1" fill="#6D8F79"/>
<rect x="62.5" y="23" width="13" height="8" rx="1" fill="#6D8F79"/>
<rect x="79.5" width="10" height="8" rx="1" fill="#6D8F79"/>
<g filter="url(#filter1_i_522_36)">
<rect x="62.5" width="13" height="19" rx="1" fill="#D9D9D9"/>
</g>
<rect x="63" y="0.5" width="12" height="18" rx="0.5" stroke="#6D8F79"/>
<rect x="92.5" y="27" width="22" height="3" rx="1" fill="#6D8F79"/>
<g filter="url(#filter2_i_522_36)">
<path d="M79.5 21V31H90V30.5V25L103 11H126V25H116.5V31H132L135.5 27.5V5.5L132.5 2H98.5L79.5 21Z" fill="#D9D9D9"/>
</g>
<path d="M79.5 21V31H90V30.5V25L103 11H126V25H116.5V31H132L135.5 27.5V5.5L132.5 2H98.5L79.5 21Z" stroke="#6D8F79"/>
<defs>
<filter id="filter0_i_522_36" x="0" y="0.5" width="59" height="35" filterUnits="userSpaceOnUse" color-interpolation-filters="sRGB">
<feFlood flood-opacity="0" result="BackgroundImageFix"/>
<feBlend mode="normal" in="SourceGraphic" in2="BackgroundImageFix" result="shape"/>
<feColorMatrix in="SourceAlpha" type="matrix" values="0 0 0 0 0 0 0 0 0 0 0 0 0 0 0 0 0 0 127 0" result="hardAlpha"/>
<feOffset dy="4"/>
<feGaussianBlur stdDeviation="2"/>
<feComposite in2="hardAlpha" operator="arithmetic" k2="-1" k3="1"/>
<feColorMatrix type="matrix" values="0 0 0 0 0 0 0 0 0 0 0 0 0 0 0 0 0 0 0.25 0"/>
<feBlend mode="normal" in2="shape" result="effect1_innerShadow_522_36"/>
</filter>
<filter id="filter1_i_522_36" x="62.5" y="0" width="13" height="23" filterUnits="userSpaceOnUse" color-interpolation-filters="sRGB">
<feFlood flood-opacity="0" result="BackgroundImageFix"/>
<feBlend mode="normal" in="SourceGraphic" in2="BackgroundImageFix" result="shape"/>
<feColorMatrix in="SourceAlpha" type="matrix" values="0 0 0 0 0 0 0 0 0 0 0 0 0 0 0 0 0 0 127 0" result="hardAlpha"/>
<feOffset dy="4"/>
<feGaussianBlur stdDeviation="2"/>
<feComposite in2="hardAlpha" operator="arithmetic" k2="-1" k3="1"/>
<feColorMatrix type="matrix" values="0 0 0 0 0 0 0 0 0 0 0 0 0 0 0 0 0 0 0.25 0"/>
<feBlend mode="normal" in2="shape" result="effect1_innerShadow_522_36"/>
</filter>
<filter id="filter2_i_522_36" x="79" y="1.5" width="57" height="34" filterUnits="userSpaceOnUse" color-interpolation-filters="sRGB">
<feFlood flood-opacity="0" result="BackgroundImageFix"/>
<feBlend mode="normal" in="SourceGraphic" in2="BackgroundImageFix" result="shape"/>
<feColorMatrix in="SourceAlpha" type="matrix" values="0 0 0 0 0 0 0 0 0 0 0 0 0 0 0 0 0 0 127 0" result="hardAlpha"/>
<feOffset dy="4"/>
<feGaussianBlur stdDeviation="2"/>
<feComposite in2="hardAlpha" operator="arithmetic" k2="-1" k3="1"/>
<feColorMatrix type="matrix" values="0 0 0 0 0 0 0 0 0 0 0 0 0 0 0 0 0 0 0.25 0"/>
<feBlend mode="normal" in2="shape" result="effect1_innerShadow_522_36"/>
</filter>
</defs>
</svg>
