<svg width="306" height="301" viewBox="0 0 306 301" fill="none" xmlns="http://www.w3.org/2000/svg">
<g filter="url(#filter0_i_509_70)">
<path d="M129.993 282.731L25.6262 173.635L80.1232 174.205L93.4868 187.345L93.6852 168.346L19.6892 167.573L1.3938 147.881L132.749 18.7455L131.648 124.24L94.1498 123.848L94.296 109.849L74.5934 129.144L131.58 130.739L129.993 282.731Z" fill="#6D8F79"/>
</g>
<g filter="url(#filter1_i_509_70)">
<path d="M304.087 150.7L303.734 151.05L172.368 281.185L171.504 282.041L174.259 18.1318L304.087 150.7ZM210.462 190.433L251.087 150.648L211.302 110.024L210.462 190.433Z" fill="#6D8F79"/>
</g>
<g filter="url(#filter2_i_509_70)">
<path d="M151.384 300.162L135.884 286.162L138.78 15.7873L154.384 0.161969L168.278 16.0953L165.884 285.162L151.384 300.162Z" fill="#6D8F79"/>
</g>
<defs>
<filter id="filter0_i_509_70" x="1.39355" y="18.7455" width="131.355" height="267.986" filterUnits="userSpaceOnUse" color-interpolation-filters="sRGB">
<feFlood flood-opacity="0" result="BackgroundImageFix"/>
<feBlend mode="normal" in="SourceGraphic" in2="BackgroundImageFix" result="shape"/>
<feColorMatrix in="SourceAlpha" type="matrix" values="0 0 0 0 0 0 0 0 0 0 0 0 0 0 0 0 0 0 127 0" result="hardAlpha"/>
<feOffset dy="4"/>
<feGaussianBlur stdDeviation="2"/>
<feComposite in2="hardAlpha" operator="arithmetic" k2="-1" k3="1"/>
<feColorMatrix type="matrix" values="0 0 0 0 0 0 0 0 0 0 0 0 0 0 0 0 0 0 0.25 0"/>
<feBlend mode="normal" in2="shape" result="effect1_innerShadow_509_70"/>
</filter>
<filter id="filter1_i_509_70" x="171.503" y="18.1318" width="132.584" height="267.909" filterUnits="userSpaceOnUse" color-interpolation-filters="sRGB">
<feFlood flood-opacity="0" result="BackgroundImageFix"/>
<feBlend mode="normal" in="SourceGraphic" in2="BackgroundImageFix" result="shape"/>
<feColorMatrix in="SourceAlpha" type="matrix" values="0 0 0 0 0 0 0 0 0 0 0 0 0 0 0 0 0 0 127 0" result="hardAlpha"/>
<feOffset dy="4"/>
<feGaussianBlur stdDeviation="2"/>
<feComposite in2="hardAlpha" operator="arithmetic" k2="-1" k3="1"/>
<feColorMatrix type="matrix" values="0 0 0 0 0 0 0 0 0 0 0 0 0 0 0 0 0 0 0.25 0"/>
<feBlend mode="normal" in2="shape" result="effect1_innerShadow_509_70"/>
</filter>
<filter id="filter2_i_509_70" x="135.884" y="0.161987" width="32.3945" height="304" filterUnits="userSpaceOnUse" color-interpolation-filters="sRGB">
<feFlood flood-opacity="0" result="BackgroundImageFix"/>
<feBlend mode="normal" in="SourceGraphic" in2="BackgroundImageFix" result="shape"/>
<feColorMatrix in="SourceAlpha" type="matrix" values="0 0 0 0 0 0 0 0 0 0 0 0 0 0 0 0 0 0 127 0" result="hardAlpha"/>
<feOffset dy="4"/>
<feGaussianBlur stdDeviation="2"/>
<feComposite in2="hardAlpha" operator="arithmetic" k2="-1" k3="1"/>
<feColorMatrix type="matrix" values="0 0 0 0 0 0 0 0 0 0 0 0 0 0 0 0 0 0 0.25 0"/>
<feBlend mode="normal" in2="shape" result="effect1_innerShadow_509_70"/>
</filter>
</defs>
</svg>
