<svg width="136" height="32" viewBox="0 0 136 32" fill="none" xmlns="http://www.w3.org/2000/svg">
<path d="M0.5 8V1H18.5L28.5 12H55.5L58.5 16.5V28L55.5 31H4L0.5 28V20H13.5V24H46.5V20H20.5L9.5 8H0.5Z" fill="#2F4FA3"/>
<path d="M0.5 8V1H18.5L28.5 12H55.5L58.5 16.5V28L55.5 31H4L0.5 28V20H13.5V24H46.5V20H20.5L9.5 8H0.5Z" stroke="#2F4FA3"/>
<path d="M58.5 0H27.5C26.9477 0 26.5 0.447715 26.5 1V7C26.5 7.55228 26.9477 8 27.5 8H58.5C59.0523 8 59.5 7.55228 59.5 7V1C59.5 0.447715 59.0523 0 58.5 0Z" fill="#2F4FA3"/>
<path d="M74.5 23H63.5C62.9477 23 62.5 23.4477 62.5 24V30C62.5 30.5523 62.9477 31 63.5 31H74.5C75.0523 31 75.5 30.5523 75.5 30V24C75.5 23.4477 75.0523 23 74.5 23Z" fill="#2F4FA3"/>
<path d="M88.5 0H80.5C79.9477 0 79.5 0.447715 79.5 1V7C79.5 7.55228 79.9477 8 80.5 8H88.5C89.0523 8 89.5 7.55228 89.5 7V1C89.5 0.447715 89.0523 0 88.5 0Z" fill="#2F4FA3"/>
<path d="M74.5 0H63.5C62.9477 0 62.5 0.447715 62.5 1V18C62.5 18.5523 62.9477 19 63.5 19H74.5C75.0523 19 75.5 18.5523 75.5 18V1C75.5 0.447715 75.0523 0 74.5 0Z" fill="#2F4FA3"/>
<path d="M74.5 0.5H63.5C63.2239 0.5 63 0.723858 63 1V18C63 18.2761 63.2239 18.5 63.5 18.5H74.5C74.7761 18.5 75 18.2761 75 18V1C75 0.723858 74.7761 0.5 74.5 0.5Z" stroke="#2F4FA3"/>
<path d="M113.5 27H93.5C92.9477 27 92.5 27.4477 92.5 28V29C92.5 29.5523 92.9477 30 93.5 30H113.5C114.052 30 114.5 29.5523 114.5 29V28C114.5 27.4477 114.052 27 113.5 27Z" fill="#2F4FA3"/>
<path d="M79.5 21V31H90V30.5V25L103 11H126V25H116.5V31H132L135.5 27.5V5.5L132.5 2H98.5L79.5 21Z" fill="#2F4FA3"/>
<path d="M79.5 21V31H90V30.5V25L103 11H126V25H116.5V31H132L135.5 27.5V5.5L132.5 2H98.5L79.5 21Z" stroke="#2F4FA3"/>
</svg>
