<svg width="57" height="87" viewBox="0 0 57 87" fill="none" xmlns="http://www.w3.org/2000/svg">
<path d="M0.207031 9V2H17.5863L27.2415 13H53.3105L56.207 17.5V29L53.3105 32H3.58634L0.207031 29V21H12.7588V25H44.6208V21H19.5174L8.89669 9H0.207031Z" fill="#2F4FA3"/>
<path d="M54.816 0H27.3281C26.8384 0 26.4414 0.447715 26.4414 1V7C26.4414 7.55228 26.8384 8 27.3281 8H54.816C55.3057 8 55.7027 7.55228 55.7027 7V1C55.7027 0.447715 55.3057 0 54.816 0Z" fill="#2F4FA3"/>
<path d="M48.359 40.2912L48.2197 51.2904C48.2127 51.8426 48.6547 52.296 49.207 52.3029L55.2065 52.3789C55.7587 52.3859 56.2121 51.9439 56.2191 51.3917L56.3584 40.3926C56.3654 39.8403 55.9234 39.387 55.3711 39.38L49.3716 39.304C48.8194 39.297 48.366 39.739 48.359 40.2912Z" fill="#2F4FA3"/>
<path d="M0.151977 39.6807L0.0126648 50.6798C0.00567021 51.232 1.04154 51.6929 2.32634 51.7092L41.8741 52.2101C43.1589 52.2263 44.2061 51.7918 44.2131 51.2396L44.3524 40.2405C44.3594 39.6882 43.3236 39.2274 42.0388 39.2111L2.49098 38.7102C1.20618 38.6939 0.158972 39.1284 0.151977 39.6807Z" fill="#2F4FA3"/>
<path d="M9.20703 56H1.20703C0.654746 56 0.207031 56.4477 0.207031 57V63C0.207031 63.5523 0.654746 64 1.20703 64H9.20703C9.75932 64 10.207 63.5523 10.207 63V57C10.207 56.4477 9.75932 56 9.20703 56Z" fill="#2F4FA3"/>
<path d="M34.207 83H14.207C13.6547 83 13.207 83.4477 13.207 84V85C13.207 85.5523 13.6547 86 14.207 86H34.207C34.7593 86 35.207 85.5523 35.207 85V84C35.207 83.4477 34.7593 83 34.207 83Z" fill="#2F4FA3"/>
<path d="M0.207031 77V87H10.707V86.5V81L23.707 67H46.707V81H37.207V87H52.707L56.207 83.5V61.5L53.207 58H19.207L0.207031 77Z" fill="#2F4FA3"/>
</svg>
